<?xml version="1.0" encoding="UTF-8"?>
<svg width="52px" height="52px" viewBox="0 0 52 52" version="1.1" xmlns="http://www.w3.org/2000/svg" xmlns:xlink="http://www.w3.org/1999/xlink">
    <title>enlarge</title>
    <g id="Responsive" stroke="none" stroke-width="1" fill="none" fill-rule="evenodd" opacity="0.901846852">
        <g id="embed-banner" transform="translate(-647.000000, -250.000000)">
            <g id="enlarge" transform="translate(647.000000, 250.000000)">
                <circle id="Oval-51-Copy" fill="#FFFFFF" fill-rule="nonzero" cx="26" cy="26" r="26"></circle>
                <circle id="Oval-51-Copy-2" stroke="#FFFFFF" cx="26" cy="26" r="25.5"></circle>
                <g id="Group" transform="translate(16.000000, 16.000000)" fill="#000000" fill-rule="nonzero">
                    <g id="Path" transform="translate(0.000000, 7.144200)">
                        <path d="M7.75656,9.60822 C5.82471,9.57177 3.90015,9.53532 1.9683,9.49887 C1.69128,9.49158 1.40697,9.49158 1.12995,9.48429 C1.3851,10.10394 1.64754,10.73088 1.90269,11.35053 C2.96703,10.28619 4.02408,9.22914 5.08842,8.1648 C6.78699,6.46623 8.47827,4.77495 10.17684,3.07638 C10.5705,2.68272 10.96416,2.28906 11.35782,1.8954 C11.77335,1.47987 11.77335,0.76545 11.35782,0.34992 C10.94229,-0.06561 10.22787,-0.06561 9.81234,0.34992 C8.748,1.41426 7.69095,2.47131 6.62661,3.53565 C4.92804,5.23422 3.23676,6.9255 1.53819,8.62407 C1.14453,9.01773 0.75087,9.41139 0.35721,9.80505 C-0.32076,10.48302 0.18954,11.65671 1.12995,11.67129 C3.0618,11.70774 4.98636,11.74419 6.91821,11.78064 C7.19523,11.78793 7.47954,11.78793 7.75656,11.7953706 C8.32518,11.80251 8.87922,11.28492 8.85006,10.70172 C8.8209,10.09665 8.36892,9.61551 7.75656,9.60822 L7.75656,9.60822 Z"></path>
                        <path d="M0.1458,3.92202 C0.11664,5.86116 0.08019,7.79301 0.05103,9.73215 C0.04374,10.01646 0.04374,10.29348 0.03645,10.57779 C0.02916,11.14641 0.54675,11.70045 1.12995,11.67129 C1.72773,11.64213 2.21616,11.19015 2.22345,10.57779 C2.25261,8.63865 2.28906,6.7068 2.31822,4.76766 C2.32551,4.48335 2.32551,4.20633 2.3328,3.92202 C2.34009,3.3534 1.8225,2.79936 1.2393,2.82852 C0.63423,2.85768 0.15309,3.30966 0.1458,3.92202 L0.1458,3.92202 Z"></path>
                    </g>
                    <g id="Path" transform="translate(7.144200, 0.000000)">
                        <path d="M11.7953706,7.75656 C11.75877,5.82471 11.72232,3.90015 11.68587,1.9683 C11.67858,1.69128 11.67858,1.40697 11.67129,1.12995 C11.65671,0.18954 10.48302,-0.32076 9.80505,0.35721 C8.74071,1.42155 7.68366,2.4786 6.61932,3.54294 C4.92075,5.24151 3.22947,6.93279 1.5309,8.63136 C1.13724,9.02502 0.74358,9.41868 0.34992,9.81234 C-0.06561,10.22787 -0.06561,10.94229 0.34992,11.35782 C0.76545,11.77335 1.47987,11.77335 1.8954,11.35782 C2.95974,10.29348 4.01679,9.23643 5.08113,8.17209 C6.7797,6.47352 8.47098,4.78224 10.16955,3.08367 C10.56321,2.69001 10.95687,2.29635 11.35053,1.90269 C10.73088,1.64754 10.10394,1.3851 9.48429,1.12995 C9.52074,3.0618 9.55719,4.98636 9.59364,6.91821 C9.60093,7.19523 9.60093,7.47954 9.60822,7.75656 C9.61551,8.32518 10.10394,8.87922 10.70172,8.85006 C11.28492,8.8209 11.80251,8.36892 11.7953706,7.75656 L11.7953706,7.75656 Z"></path>
                        <path d="M3.92202,2.3328 C5.86116,2.30364 7.79301,2.26719 9.73215,2.23803 C10.01646,2.23074 10.29348,2.23074 10.57779,2.22345 C11.14641,2.21616 11.70045,1.72773 11.67129,1.12995 C11.64213,0.54675 11.19015,0.02916 10.57779,0.03645 C8.63865,0.06561 6.7068,0.10206 4.76766,0.13122 C4.48335,0.13851 4.20633,0.13851 3.92202,0.1458 C3.3534,0.15309 2.79936,0.64152 2.82852,1.2393 C2.85768,1.8225 3.30966,2.34009 3.92202,2.3328 L3.92202,2.3328 Z"></path>
                    </g>
                </g>
            </g>
        </g>
    </g>
</svg>