<svg xmlns="http://www.w3.org/2000/svg" xmlns:xlink="http://www.w3.org/1999/xlink" width="26" height="27" viewBox="0 0 26 27">
    <defs>
        <filter id="a" width="183.3%" height="176.8%" x="-44.4%" y="-25.3%" filterUnits="objectBoundingBox">
            <feOffset dy="2" in="SourceAlpha" result="shadowOffsetOuter1"/>
            <feGaussianBlur in="shadowOffsetOuter1" result="shadowBlurOuter1" stdDeviation="2"/>
            <feColorMatrix in="shadowBlurOuter1" result="shadowMatrixOuter1" values="0 0 0 0 0 0 0 0 0 0 0 0 0 0 0 0 0 0 0.3 0"/>
            <feMerge>
                <feMergeNode in="shadowMatrixOuter1"/>
                <feMergeNode in="SourceGraphic"/>
            </feMerge>
        </filter>
        <path id="b" d="M0 13.075V.205h17.784v12.87H0z"/>
    </defs>
    <g fill="none" fill-rule="evenodd" filter="url(#a)" transform="translate(4 2)">
        <mask id="c" fill="#fff">
            <use xlink:href="#b"/>
        </mask>
        <path fill="#FFF" d="M3.1 8.646c.767 1.584 2.617 1.852 5.97 1.852 4.425 0 6.12-.469 6.12-3.86 0-.803-.089-1.264-.308-1.777-.526-1.353-2.438-1.897-5.813-1.897-4.426 0-6.341.565-6.341 3.674 0 .848.109 1.495.372 2.008M9.042.206c4.097 0 6.67.559 7.868 2.543.6.94.874 2.213.874 3.891 0 5.215-2.672 6.435-8.742 6.435-4.271 0-6.994-.585-8.243-2.747C.25 9.413 0 8.192 0 6.64 0 1.452 2.947.205 9.042.205" mask="url(#c)"/>
        <g fill="#FFF" fill-rule="nonzero">
            <path d="M2.145 14.64c.619.407 3.91 1.567 6.064 1.683 2.88.155 3.748-.525 4.2-.695.105-.05.36-.231.584-.038.225.193.054.43.011.508-.153.084-1.381 2.24-4.258 2.413-3.428.205-6.64-1.823-7.71-2.828-.353-.331.401-1.511 1.11-1.044z"/>
        </g>
    </g>
</svg>
